<?xml version="1.0" encoding="UTF-8" standalone="no"?>
<!-- Created with Inkscape (http://www.inkscape.org/) -->

<svg
   xmlns:dc="http://purl.org/dc/elements/1.1/"
   xmlns:cc="http://creativecommons.org/ns#"
   xmlns:rdf="http://www.w3.org/1999/02/22-rdf-syntax-ns#"
   xmlns:svg="http://www.w3.org/2000/svg"
   xmlns="http://www.w3.org/2000/svg"
   xmlns:sodipodi="http://sodipodi.sourceforge.net/DTD/sodipodi-0.dtd"
   xmlns:inkscape="http://www.inkscape.org/namespaces/inkscape"
   id="svg4155"
   version="1.1"
   inkscape:version="0.91 r13725"
   xml:space="preserve"
   width="202.07849"
   height="60.638748"
   viewBox="0 0 202.07849 60.638748"
   sodipodi:docname="Volunteer-Arlington-Logo.svg"><metadata
     id="metadata4161"><rdf:RDF><cc:Work
         rdf:about=""><dc:format>image/svg+xml</dc:format><dc:type
           rdf:resource="http://purl.org/dc/dcmitype/StillImage" /><dc:title></dc:title></cc:Work></rdf:RDF></metadata><defs
     id="defs4159"><clipPath
       clipPathUnits="userSpaceOnUse"
       id="clipPath4169"><path
         d="m 432.65,368.535 300,0 0,200 -300,0 0,-200 z"
         id="path4171"
         inkscape:connector-curvature="0" /></clipPath><clipPath
       clipPathUnits="userSpaceOnUse"
       id="clipPath4183"><path
         d="M 0,612 792,612 792,0 0,0 0,612 Z"
         id="path4185"
         inkscape:connector-curvature="0" /></clipPath><clipPath
       clipPathUnits="userSpaceOnUse"
       id="clipPath4191"><path
         d="m 433.496,426.882 298.307,0 0,-51.082 -298.307,0 0,51.082 z"
         id="path4193"
         inkscape:connector-curvature="0" /></clipPath></defs><sodipodi:namedview
     pagecolor="#ffffff"
     bordercolor="#666666"
     borderopacity="1"
     objecttolerance="10"
     gridtolerance="10"
     guidetolerance="10"
     inkscape:pageopacity="0"
     inkscape:pageshadow="2"
     inkscape:window-width="1391"
     inkscape:window-height="792"
     id="namedview4157"
     showgrid="false"
     fit-margin-top="-2.1"
     fit-margin-left="0"
     fit-margin-right="0"
     fit-margin-bottom="0"
     inkscape:zoom="1.3661488"
     inkscape:cx="25.055762"
     inkscape:cy="-62.462342"
     inkscape:window-x="0"
     inkscape:window-y="0"
     inkscape:window-maximized="0"
     inkscape:current-layer="g4163" /><g
     id="g4163"
     inkscape:groupmode="layer"
     inkscape:label="Volunteer-Arlington-Logo"
     transform="matrix(1.25,0,0,-1.25,-631.66152,534.55653)"><g
       id="g4165"><g
         id="g4167"
         clip-path="url(#clipPath4169)"><g
           id="g4173"><g
             id="g4175"
             transform="matrix(300.70009,0,0,201.71965,432.29889,367.67488)" /></g></g></g><g
       id="g4179"
       transform="translate(3.5135265,1.7567633)"><g
         id="g4181"
         clip-path="url(#clipPath4183)"><g
           id="g4187"><g
             id="g4189" /><g
             id="g4195"><g
               clip-path="url(#clipPath4191)"
               id="g4197"
               style="opacity:0.75" /></g></g><g
           id="g4201"
           transform="translate(523.5928,421.0361)"><path
             d="m 0,0 -5.814,-18.74 -5.863,0 -6.081,18.74 6.062,0 2.966,-10.215 c 0.202,-0.603 0.38,-1.199 0.538,-1.784 L -4.729,0 0,0 Z"
             style="fill:#0079c1;fill-opacity:1;fill-rule:nonzero;stroke:none"
             id="path4203"
             inkscape:connector-curvature="0" /></g><g
           id="g4205"
           transform="translate(532.8838,406.2642)"><path
             d="m 0,0 c 0.97,0 1.668,0.423 2.094,1.27 0.425,0.846 0.638,2.396 0.638,4.647 0,3.258 -0.875,4.887 -2.622,4.887 -1.885,0 -2.829,-1.857 -2.829,-5.573 C -2.719,1.744 -1.813,0 0,0 m 0.027,-4.256 c -2.635,0 -4.784,0.874 -6.445,2.622 -1.661,1.748 -2.492,4.087 -2.492,7.016 0,2.8 0.795,5.113 2.382,6.94 1.588,1.825 3.791,2.739 6.611,2.739 2.607,0 4.733,-0.861 6.377,-2.582 C 8.102,10.759 8.924,8.461 8.924,5.588 8.924,2.612 8.095,0.229 6.438,-1.565 4.782,-3.359 2.645,-4.256 0.027,-4.256"
             style="fill:#0079c1;fill-opacity:1;fill-rule:nonzero;stroke:none"
             id="path4207"
             inkscape:connector-curvature="0" /></g><g
           id="g4209"
           transform="translate(557.376,406.8955)"><path
             d="m 0,0 0,-4.599 -13.139,0 0,18.74 5.753,0 L -7.386,0 0,0 Z"
             style="fill:#0079c1;fill-opacity:1;fill-rule:nonzero;stroke:none"
             id="path4211"
             inkscape:connector-curvature="0" /></g><g
           id="g4213"
           transform="translate(574.4414,421.0361)"><path
             d="m 0,0 0,-12.41 c 0,-2.353 -0.698,-4.044 -2.095,-5.074 -1.395,-1.03 -3.214,-1.544 -5.456,-1.544 -2.362,0 -4.259,0.494 -5.691,1.483 -1.432,0.988 -2.149,2.599 -2.149,4.833 l 0,12.712 5.849,0 0,-12.04 c 0,-0.897 0.189,-1.551 0.568,-1.963 0.378,-0.413 0.984,-0.619 1.815,-0.619 0.693,0 1.262,0.15 1.704,0.447 0.443,0.298 0.707,0.633 0.794,1.009 0.086,0.375 0.131,1.108 0.131,2.197 L -4.53,0 0,0 Z"
             style="fill:#0079c1;fill-opacity:1;fill-rule:nonzero;stroke:none"
             id="path4215"
             inkscape:connector-curvature="0" /></g><g
           id="g4217"
           transform="translate(593.5371,402.2964)"><path
             d="m 0,0 -4.681,0 -5.132,8.279 c -0.66,1.062 -1.323,2.352 -1.993,3.87 0.302,-1.208 0.452,-2.232 0.452,-3.074 l 0,-9.075 -4.667,0 0,18.74 5.437,0 4.366,-6.864 c 0.869,-1.364 1.529,-2.563 1.977,-3.598 -0.293,1.602 -0.44,3.241 -0.44,4.915 l 0,5.547 L 0,18.74 0,0 Z"
             style="fill:#0079c1;fill-opacity:1;fill-rule:nonzero;stroke:none"
             id="path4219"
             inkscape:connector-curvature="0" /></g><g
           id="g4221"
           transform="translate(604.5068,416.5469)"><path
             d="m 0,0 0,-14.25 -5.45,0 0,14.25 -3.885,0 0,4.489 13.22,0 L 3.885,0 0,0 Z"
             style="fill:#0079c1;fill-opacity:1;fill-rule:nonzero;stroke:none"
             id="path4223"
             inkscape:connector-curvature="0" /></g><g
           id="g4225"
           transform="translate(624.126,406.7725)"><path
             d="m 0,0 0,-4.476 -14.1,0 0,18.74 14.1,0 0,-4.325 -8.458,0 0,-2.718 6.838,0 0,-4.16 -6.838,0 L -8.458,0 0,0 Z"
             style="fill:#0079c1;fill-opacity:1;fill-rule:nonzero;stroke:none"
             id="path4227"
             inkscape:connector-curvature="0" /></g><g
           id="g4229"
           transform="translate(640.5039,406.7725)"><path
             d="m 0,0 0,-4.476 -14.1,0 0,18.74 14.1,0 0,-4.325 -8.456,0 0,-2.718 6.836,0 0,-4.16 -6.836,0 L -8.456,0 0,0 Z"
             style="fill:#0079c1;fill-opacity:1;fill-rule:nonzero;stroke:none"
             id="path4231"
             inkscape:connector-curvature="0" /></g><g
           id="g4233"
           transform="translate(648.5352,413.4717)"><path
             d="M 0,0 2.457,0 C 3.181,0 3.761,0.151 4.201,0.453 4.64,0.755 4.86,1.199 4.86,1.785 4.86,2.984 4.123,3.583 2.649,3.583 L 0,3.583 0,0 Z m 10.928,-11.175 -6.377,0 -2.738,7.166 -1.813,0 0,-7.166 -5.752,0 0,18.739 9.788,0 c 2.159,0 3.837,-0.505 5.032,-1.517 1.195,-1.01 1.791,-2.345 1.791,-4.002 0,-1.079 -0.219,-2.033 -0.659,-2.861 -0.438,-0.829 -1.327,-1.559 -2.663,-2.19 l 3.391,-8.169 z"
             style="fill:#0079c1;fill-opacity:1;fill-rule:nonzero;stroke:none"
             id="path4235"
             inkscape:connector-curvature="0" /></g><g
           id="g4237"
           transform="translate(512.6914,387.6797)"><path
             d="M 0,0 3.069,0 1.535,5.502 0,0 Z m 5.164,-7.879 -1.072,3.738 -5.081,0 -1.139,-3.738 -4.726,0 5.854,18.968 6.157,0 5.948,-18.968 -5.941,0 z"
             style="fill:#1b3664;fill-opacity:1;fill-rule:nonzero;stroke:none"
             id="path4239"
             inkscape:connector-curvature="0" /></g><g
           id="g4241"
           transform="translate(512.6914,387.6797)"><path
             d="M 0,0 3.069,0 1.535,5.502 0,0 Z m 5.164,-7.879 -1.072,3.738 -5.081,0 -1.139,-3.738 -4.726,0 5.854,18.968 6.157,0 5.948,-18.968 -5.941,0 z"
             style="fill:none;stroke:#ffffff;stroke-width:0.75;stroke-linecap:butt;stroke-linejoin:miter;stroke-miterlimit:4;stroke-dasharray:none;stroke-opacity:1"
             id="path4243"
             inkscape:connector-curvature="0" /></g><g
           id="g4245"
           transform="translate(531.3672,391.1118)"><path
             d="m 0,0 2.486,0 c 0.733,0 1.321,0.153 1.765,0.458 0.445,0.307 0.667,0.756 0.667,1.349 0,1.214 -0.745,1.82 -2.236,1.82 L 0,3.627 0,0 Z m 11.062,-11.312 -6.457,0 -2.769,7.254 -1.836,0 0,-7.254 -5.823,0 0,18.969 9.908,0 c 2.186,0 3.884,-0.512 5.093,-1.536 1.208,-1.024 1.813,-2.374 1.813,-4.05 0,-1.093 -0.221,-2.06 -0.667,-2.898 C 9.879,-1.665 8.98,-2.404 7.628,-3.043 l 3.434,-8.269 z"
             style="fill:#1b3664;fill-opacity:1;fill-rule:nonzero;stroke:none"
             id="path4247"
             inkscape:connector-curvature="0" /></g><g
           id="g4249"
           transform="translate(531.3672,391.1118)"><path
             d="m 0,0 2.486,0 c 0.733,0 1.321,0.153 1.765,0.458 0.445,0.307 0.667,0.756 0.667,1.349 0,1.214 -0.745,1.82 -2.236,1.82 L 0,3.627 0,0 Z m 11.062,-11.312 -6.457,0 -2.769,7.254 -1.836,0 0,-7.254 -5.823,0 0,18.969 9.908,0 c 2.186,0 3.884,-0.512 5.093,-1.536 1.208,-1.024 1.813,-2.374 1.813,-4.05 0,-1.093 -0.221,-2.06 -0.667,-2.898 C 9.879,-1.665 8.98,-2.404 7.628,-3.043 l 3.434,-8.269 z"
             style="fill:none;stroke:#ffffff;stroke-width:0.75;stroke-linecap:butt;stroke-linejoin:miter;stroke-miterlimit:4;stroke-dasharray:none;stroke-opacity:1"
             id="path4251"
             inkscape:connector-curvature="0" /></g><g
           id="g4253"
           transform="translate(558.4775,384.4561)"><path
             d="m 0,0 0,-4.656 -13.299,0 0,18.969 5.822,0 L -7.477,0 0,0 Z"
             style="fill:#1b3664;fill-opacity:1;fill-rule:nonzero;stroke:none"
             id="path4255"
             inkscape:connector-curvature="0" /></g><g
           id="g4257"
           transform="translate(558.4775,384.4561)"><path
             d="m 0,0 0,-4.656 -13.299,0 0,18.969 5.822,0 L -7.477,0 0,0 Z"
             style="fill:none;stroke:#ffffff;stroke-width:0.75;stroke-linecap:butt;stroke-linejoin:miter;stroke-miterlimit:4;stroke-dasharray:none;stroke-opacity:1"
             id="path4259"
             inkscape:connector-curvature="0" /></g><path
           d="m 566.329,379.8 -5.822,0 0,18.968 5.822,0 0,-18.968 z"
           style="fill:#1b3664;fill-opacity:1;fill-rule:nonzero;stroke:#ffffff;stroke-width:0.75;stroke-linecap:butt;stroke-linejoin:miter;stroke-miterlimit:4;stroke-dasharray:none;stroke-opacity:1"
           id="path4261"
           inkscape:connector-curvature="0" /><g
           id="g4263"
           transform="translate(585.8516,379.8003)"><path
             d="m 0,0 -4.738,0 -5.196,8.381 c -0.666,1.075 -1.337,2.381 -2.016,3.917 0.305,-1.223 0.459,-2.26 0.459,-3.113 l 0,-9.185 -4.724,0 0,18.968 5.502,0 4.42,-6.947 c 0.88,-1.38 1.547,-2.595 1.999,-3.642 -0.296,1.621 -0.444,3.28 -0.444,4.975 l 0,5.614 4.738,0 L 0,0 Z"
             style="fill:#1b3664;fill-opacity:1;fill-rule:nonzero;stroke:none"
             id="path4265"
             inkscape:connector-curvature="0" /></g><g
           id="g4267"
           transform="translate(585.8516,379.8003)"><path
             d="m 0,0 -4.738,0 -5.196,8.381 c -0.666,1.075 -1.337,2.381 -2.016,3.917 0.305,-1.223 0.459,-2.26 0.459,-3.113 l 0,-9.185 -4.724,0 0,18.968 5.502,0 4.42,-6.947 c 0.88,-1.38 1.547,-2.595 1.999,-3.642 -0.296,1.621 -0.444,3.28 -0.444,4.975 l 0,5.614 4.738,0 L 0,0 Z"
             style="fill:none;stroke:#ffffff;stroke-width:0.75;stroke-linecap:butt;stroke-linejoin:miter;stroke-miterlimit:4;stroke-dasharray:none;stroke-opacity:1"
             id="path4269"
             inkscape:connector-curvature="0" /></g><g
           id="g4271"
           transform="translate(605.543,390.4312)"><path
             d="m 0,0 0,-10.631 -2.849,0 c -0.232,0.788 -0.486,1.45 -0.764,1.987 -1.177,-1.519 -2.918,-2.278 -5.225,-2.278 -2.445,0 -4.456,0.854 -6.03,2.564 -1.576,1.708 -2.363,4.022 -2.363,6.94 0,2.835 0.761,5.218 2.286,7.15 1.524,1.931 3.792,2.897 6.801,2.897 2.26,0 4.081,-0.575 5.462,-1.723 C -1.303,5.758 -0.408,4.126 0,2.015 L -5.642,1.459 c -0.278,1.973 -1.144,2.96 -2.598,2.96 -1.908,0 -2.863,-1.816 -2.863,-5.448 0,-2.196 0.306,-3.643 0.917,-4.343 0.612,-0.698 1.352,-1.048 2.223,-1.048 0.705,0 1.304,0.213 1.8,0.639 0.496,0.426 0.747,1.01 0.757,1.751 l -3.14,0 0,4.03 L 0,0 Z"
             style="fill:#1b3664;fill-opacity:1;fill-rule:nonzero;stroke:none"
             id="path4273"
             inkscape:connector-curvature="0" /></g><g
           id="g4275"
           transform="translate(605.543,390.4312)"><path
             d="m 0,0 0,-10.631 -2.849,0 c -0.232,0.788 -0.486,1.45 -0.764,1.987 -1.177,-1.519 -2.918,-2.278 -5.225,-2.278 -2.445,0 -4.456,0.854 -6.03,2.564 -1.576,1.708 -2.363,4.022 -2.363,6.94 0,2.835 0.761,5.218 2.286,7.15 1.524,1.931 3.792,2.897 6.801,2.897 2.26,0 4.081,-0.575 5.462,-1.723 C -1.303,5.758 -0.408,4.126 0,2.015 L -5.642,1.459 c -0.278,1.973 -1.144,2.96 -2.598,2.96 -1.908,0 -2.863,-1.816 -2.863,-5.448 0,-2.196 0.306,-3.643 0.917,-4.343 0.612,-0.698 1.352,-1.048 2.223,-1.048 0.705,0 1.304,0.213 1.8,0.639 0.496,0.426 0.747,1.01 0.757,1.751 l -3.14,0 0,4.03 L 0,0 Z"
             style="fill:none;stroke:#ffffff;stroke-width:0.75;stroke-linecap:butt;stroke-linejoin:miter;stroke-miterlimit:4;stroke-dasharray:none;stroke-opacity:1"
             id="path4277"
             inkscape:connector-curvature="0" /></g><g
           id="g4279"
           transform="translate(616.2705,394.2246)"><path
             d="m 0,0 0,-14.424 -5.517,0 0,14.424 -3.932,0 0,4.544 13.382,0 L 3.933,0 0,0 Z"
             style="fill:#1b3664;fill-opacity:1;fill-rule:nonzero;stroke:none"
             id="path4281"
             inkscape:connector-curvature="0" /></g><g
           id="g4283"
           transform="translate(616.2705,394.2246)"><path
             d="m 0,0 0,-14.424 -5.517,0 0,14.424 -3.932,0 0,4.544 13.382,0 L 3.933,0 0,0 Z"
             style="fill:none;stroke:#ffffff;stroke-width:0.75;stroke-linecap:butt;stroke-linejoin:miter;stroke-miterlimit:4;stroke-dasharray:none;stroke-opacity:1"
             id="path4285"
             inkscape:connector-curvature="0" /></g><g
           id="g4287"
           transform="translate(659.417,379.8003)"><path
             d="m 0,0 -4.738,0 -5.195,8.381 c -0.667,1.075 -1.339,2.381 -2.017,3.917 0.305,-1.223 0.459,-2.26 0.459,-3.113 l 0,-9.185 -4.725,0 0,18.968 5.502,0 4.42,-6.947 c 0.88,-1.38 1.547,-2.595 2.001,-3.642 -0.297,1.621 -0.445,3.28 -0.445,4.975 l 0,5.614 4.738,0 L 0,0 Z"
             style="fill:#1b3664;fill-opacity:1;fill-rule:nonzero;stroke:none"
             id="path4289"
             inkscape:connector-curvature="0" /></g><g
           id="g4291"
           transform="translate(659.417,379.8003)"><path
             d="m 0,0 -4.738,0 -5.195,8.381 c -0.667,1.075 -1.339,2.381 -2.017,3.917 0.305,-1.223 0.459,-2.26 0.459,-3.113 l 0,-9.185 -4.725,0 0,18.968 5.502,0 4.42,-6.947 c 0.88,-1.38 1.547,-2.595 2.001,-3.642 -0.297,1.621 -0.445,3.28 -0.445,4.975 l 0,5.614 4.738,0 L 0,0 Z"
             style="fill:none;stroke:#ffffff;stroke-width:0.75;stroke-linecap:butt;stroke-linejoin:miter;stroke-miterlimit:4;stroke-dasharray:none;stroke-opacity:1"
             id="path4293"
             inkscape:connector-curvature="0" /></g><g
           id="g4295"
           transform="translate(630.9043,399.1982)"><path
             d="m 0,0 c -5.313,0 -9.622,-4.308 -9.622,-9.622 0,-5.314 4.309,-9.621 9.622,-9.621 5.313,0 9.621,4.307 9.621,9.621 C 9.621,-4.308 5.313,0 0,0"
             style="fill:#0071bc;fill-opacity:1;fill-rule:nonzero;stroke:none"
             id="path4297"
             inkscape:connector-curvature="0" /></g><g
           id="g4299"
           transform="translate(632.6348,388.0718)"><path
             d="m 0,0 3.007,1.82 -10.462,8.741 2.88,-13.329 3.007,1.82 3.996,-6.603 1.567,0.949 L 0,0 Z"
             style="fill:#ffffff;fill-opacity:1;fill-rule:nonzero;stroke:none"
             id="path4301"
             inkscape:connector-curvature="0" /></g></g></g></g></svg>